<?xml version="1.0" encoding="utf-8"?>
<!-- Generator: Adobe Illustrator 22.1.0, SVG Export Plug-In . SVG Version: 6.00 Build 0)  -->
<svg version="1.1" id="Layer_1" xmlns="http://www.w3.org/2000/svg" xmlns:xlink="http://www.w3.org/1999/xlink" x="0px" y="0px"
	 viewBox="0 0 95.3 95.3" style="enable-background:new 0 0 95.3 95.3;" xml:space="preserve">
<path d="M0,46.7c0-4.7,0-9.3,0-14c1.5-3.9,3-5,7.3-5c5.1,0,10.2,0,15.3,0c0.3,0,0.6,0,1,0c-1-0.7-2.1-1.1-3.1-1.7
	c-4.3-2.3-8.1-5.1-10.6-9.3c-1.5-2.5-2.4-5.2-1.8-8.2c0.8-4.1,3.5-6.4,7.2-7.6c1.4-0.5,2.9-0.7,4.4-1c1.4,0,2.9,0,4.3,0
	c0.2,0.1,0.4,0.1,0.6,0.2c5.6,0.6,10.4,3,14.3,7c3.7,3.8,6.3,8.3,8.2,13.3c0.2,0.4,0.3,0.8,0.6,1.4c0.2-0.6,0.4-1,0.6-1.4
	c1.3-3.4,2.9-6.6,5-9.6c3.5-4.9,7.9-8.5,13.9-10c1.4-0.4,2.8-0.5,4.2-0.8c1.4,0,2.9,0,4.3,0c0.3,0.1,0.7,0.1,1,0.2
	c2,0.3,4,0.8,5.8,1.8c3.4,2,5.2,4.9,4.9,8.9c-0.2,3.2-1.7,5.9-3.7,8.3c-3,3.6-6.9,6.1-11.2,8c-0.3,0.1-0.6,0.3-0.8,0.4
	c0,0,0,0.1,0.1,0.1c0.3,0,0.7,0,1,0c5.4,0,10.8,0,16.2,0c3.3,0,5.4,1.6,6.3,4.7c0,0.1,0.1,0.2,0.1,0.2c0,4.7,0,9.3,0,14
	c-0.1,0.1-0.1,0.1-0.1,0.2c-0.9,3.1-3,4.6-6.2,4.7c-0.5,0-1,0-1.6,0c0,0.5,0,0.9,0,1.3c0,7.5,0,15.1,0,22.6c0,4.6,0,9.2,0,13.8
	c0,2.9-1.7,5.1-4.5,5.9c-0.1,0-0.3,0.1-0.4,0.2c-23.2,0-46.4,0-69.6,0c-4.1-1.3-4.9-4-4.9-7.4c0.1-11.7,0-23.4,0-35
	c0-0.4,0-0.8,0-1.3c-0.8,0-1.5,0-2.3,0c-2.5-0.1-4.2-1.4-5.2-3.6C0.3,47.6,0.2,47.1,0,46.7z M11.9,51.7c0,0.4,0,0.7,0,1
	c0,12,0,24,0,36c0,2,0.7,2.6,2.7,2.6c10,0,20,0,29.9,0c0.3,0,0.7,0,1,0c0-13.3,0-26.4,0-39.6C34.4,51.7,23.2,51.7,11.9,51.7z
	 M49.7,91.3c0.4,0,0.7,0,0.9,0c10,0,20.1,0,30.1,0c1.9,0,2.6-0.7,2.6-2.6c0-12,0-24,0-36c0-0.3,0-0.7,0-1c-11.3,0-22.5,0-33.7,0
	C49.7,65,49.7,78.1,49.7,91.3z M45.6,31.8c-0.3,0-0.5,0-0.7,0c-12.9,0-25.8,0-38.7,0c-1.5,0-2.3,0.7-2.3,2.3c0,3.7,0,7.3,0,11
	c0,1.9,0.7,2.6,2.6,2.6c12.7,0,25.4,0,38.1,0c0.3,0,0.7,0,1,0C45.6,42.3,45.6,37.1,45.6,31.8z M49.7,47.6c0.3,0,0.4,0,0.6,0
	c12.9,0,25.9,0,38.8,0c1.5,0,2.3-0.8,2.3-2.3c0-3.7,0-7.4,0-11.2c0-1.7-0.7-2.4-2.4-2.4c-12.7,0-25.5,0-38.2,0c-0.3,0-0.7,0-1,0
	C49.7,37.1,49.7,42.3,49.7,47.6z M45.3,27.9c-1.4-5.7-3.3-10.8-6.7-15.2C34.6,7.2,29.2,4.1,22.3,4c-2.4-0.1-4.7,0.2-6.9,1.2
	c-3,1.4-4.2,4.1-3.2,7.2c0.5,1.3,1.2,2.6,2,3.7c1.7,2.3,4,4,6.4,5.4c5,2.9,10.4,4.5,16.1,5.4C39.6,27.4,42.3,27.6,45.3,27.9z
	 M50.1,27.7c0.5,0,0.9,0,1.2,0c3.1-0.4,6.3-0.6,9.4-1.1c5.4-1,10.5-2.7,15.2-5.8c2.7-1.8,5-3.8,6.5-6.7c0.8-1.5,1.2-3,0.9-4.7
	c-0.5-2.7-2.4-4.1-4.8-4.7c-6-1.6-11.6-0.7-16.6,3C55.1,12.6,52.2,19.9,50.1,27.7z"/>
</svg>
